<?xml version="1.0" encoding="UTF-8" standalone="no"?>
<!DOCTYPE svg PUBLIC "-//W3C//DTD SVG 1.1//EN" "http://www.w3.org/Graphics/SVG/1.1/DTD/svg11.dtd">
<svg xmlns="http://www.w3.org/2000/svg" version="1.1" viewBox="0.00 0.00 500.00 500.00">
<ellipse fill="#0b4fbf" cx="0.00" cy="0.00" transform="translate(397.49,84.00) rotate(0.1)" rx="72.36" ry="72.13"/>
<path fill="#fa704a" d="
  M 430.56 394.79
  Q 415.24 417.14 395.22 433.94
  Q 370.21 454.93 340.41 468.58
  Q 328.72 473.93 312.07 479.01
  Q 252.69 497.12 193.49 480.54
  Q 173.63 474.97 153.09 464.85
  Q 72.93 425.35 43.58 340.37
  Q 34.91 315.25 33.04 290.55
  Q 31.62 271.85 31.57 232.30
  Q 31.42 120.79 31.39 105.56
  Q 31.35 89.94 33.45 75.93
  Q 34.57 68.44 38.06 60.04
  C 48.49 34.95 71.74 20.64 98.56 18.84
  Q 113.83 17.82 127.84 22.97
  C 157.01 33.68 173.11 62.09 173.33 92.27
  Q 173.46 110.11 173.41 263.39
  Q 173.40 270.28 173.90 274.09
  C 174.52 278.83 174.83 283.62 175.96 288.25
  Q 182.96 317.00 207.72 333.73
  Q 220.13 342.12 235.66 344.91
  Q 252.91 348.02 270.17 343.52
  Q 279.73 341.02 288.55 335.80
  Q 316.01 319.52 324.36 287.49
  Q 326.01 281.15 326.58 271.37
  Q 327.52 255.39 328.25 248.29
  Q 329.61 235.00 332.16 225.42
  C 337.85 204.09 354.65 188.18 375.57 181.83
  C 400.24 174.35 426.58 178.81 445.78 196.42
  Q 465.79 214.77 468.33 242.52
  Q 469.86 259.14 469.26 272.78
  Q 468.47 290.95 465.86 307.67
  C 463.68 321.65 459.06 335.65 454.03 349.89
  Q 450.52 359.84 446.15 368.23
  Q 437.91 384.07 430.56 394.79
  Z"
/>
</svg>
